<!-- Generated by IcoMoon.io -->
<svg version="1.1" xmlns="http://www.w3.org/2000/svg" width="32" height="32" viewBox="0 0 32 32">
<title>instagram-icon</title>
<path fill="#fff" d="M28.76 1.259c-0.346-0.359-0.763-0.644-1.223-0.836s-0.956-0.288-1.455-0.282h-22.003c-0.499-0.006-0.994 0.089-1.455 0.282s-0.877 0.477-1.223 0.836c-0.36 0.346-0.645 0.762-0.837 1.223s-0.289 0.956-0.283 1.455v22.007c-0.006 0.499 0.091 0.993 0.283 1.453s0.477 0.876 0.837 1.221c0.346 0.359 0.763 0.644 1.223 0.836s0.956 0.288 1.455 0.282h22.007c1.005-0.005 1.968-0.407 2.679-1.118s1.112-1.674 1.118-2.679v-22.003c0.006-0.499-0.091-0.995-0.283-1.455s-0.478-0.877-0.839-1.223zM10.909 10.806c0.551-0.546 1.205-0.977 1.925-1.267s1.49-0.432 2.266-0.419c0.779-0.014 1.553 0.128 2.276 0.417s1.381 0.721 1.935 1.269c0.559 0.519 1.003 1.15 1.303 1.851s0.45 1.458 0.44 2.22c0.011 0.763-0.139 1.52-0.439 2.222s-0.744 1.333-1.304 1.853c-0.554 0.548-1.212 0.979-1.935 1.269s-1.497 0.431-2.276 0.417c-0.776 0.013-1.546-0.13-2.266-0.419s-1.374-0.72-1.925-1.267c-0.559-0.52-1.003-1.151-1.304-1.853s-0.45-1.459-0.439-2.222c-0.010-0.763 0.14-1.519 0.44-2.22s0.744-1.332 1.303-1.851zM26.526 25.15c0.003 0.156-0.026 0.311-0.086 0.455s-0.149 0.274-0.262 0.382c-0.108 0.109-0.238 0.195-0.38 0.253s-0.295 0.087-0.449 0.085h-20.596c-0.156 0.004-0.311-0.024-0.456-0.082s-0.276-0.145-0.386-0.255c-0.11-0.11-0.197-0.242-0.255-0.386s-0.086-0.3-0.082-0.456v-12.481h2.721c-0.261 0.816-0.393 1.668-0.393 2.525-0.015 1.182 0.218 2.354 0.683 3.441s1.154 2.064 2.020 2.868c0.852 0.846 1.865 1.512 2.978 1.961s2.306 0.67 3.506 0.651c1.626 0.016 3.227-0.396 4.643-1.195 1.379-0.771 2.531-1.891 3.34-3.248 0.818-1.351 1.245-2.901 1.234-4.48 0-0.857-0.132-1.709-0.393-2.525h2.602v12.485l0.010 0.002zM26.526 7.944c0.002 0.175-0.031 0.349-0.098 0.511s-0.164 0.31-0.288 0.434c-0.124 0.124-0.271 0.222-0.433 0.288s-0.336 0.099-0.511 0.098h-3.352c-0.175 0.002-0.349-0.031-0.511-0.098s-0.31-0.164-0.433-0.288c-0.124-0.124-0.222-0.271-0.288-0.434s-0.099-0.336-0.098-0.511v-3.179c-0.001-0.174 0.033-0.347 0.101-0.508s0.167-0.306 0.292-0.428c0.122-0.128 0.268-0.228 0.431-0.296s0.338-0.101 0.514-0.097h3.344c0.176-0.004 0.351 0.030 0.513 0.097s0.309 0.168 0.43 0.296c0.125 0.121 0.225 0.267 0.292 0.428s0.102 0.333 0.101 0.508l-0.006 3.179z"></path>
</svg>
