<!-- Generated by IcoMoon.io -->
<svg version="1.1" xmlns="http://www.w3.org/2000/svg" width="30" height="32" viewBox="0 0 30 32">
<title>line-soc-icon</title>
<path fill="#fff" d="M24.414 19.119c-0.8 0.005-1.588 0.19-2.306 0.543s-1.346 0.863-1.839 1.493l-9.837-4.908c0.269-0.892 0.269-1.843 0-2.735l9.837-4.908c0.781 0.98 1.885 1.652 3.114 1.895s2.506 0.044 3.602-0.564 1.941-1.585 2.385-2.757c0.444-1.172 0.458-2.464 0.040-3.645s-1.242-2.177-2.324-2.809c-1.082-0.632-2.354-0.86-3.588-0.643s-2.352 0.864-3.155 1.827c-0.803 0.963-1.238 2.179-1.229 3.432 0.006 0.463 0.074 0.922 0.201 1.367l-9.837 4.908c-0.679-0.87-1.612-1.507-2.671-1.821s-2.188-0.29-3.232 0.069c-1.044 0.359-1.95 1.035-2.591 1.933s-0.986 1.975-0.986 3.079c0 1.104 0.345 2.18 0.986 3.079s1.547 1.574 2.591 1.933c1.044 0.359 2.174 0.383 3.232 0.069s1.992-0.951 2.671-1.821l9.837 4.908c-0.128 0.448-0.196 0.912-0.201 1.378 0 1.048 0.311 2.073 0.893 2.944s1.41 1.551 2.379 1.952c0.968 0.401 2.034 0.506 3.062 0.302s1.973-0.709 2.714-1.45c0.741-0.741 1.246-1.686 1.45-2.714s0.1-2.094-0.302-3.062c-0.401-0.968-1.080-1.796-1.952-2.379s-1.896-0.893-2.944-0.893zM24.414 2.159c0.629 0 1.244 0.187 1.767 0.536s0.93 0.846 1.171 1.427c0.241 0.581 0.304 1.22 0.181 1.837s-0.426 1.183-0.87 1.628c-0.445 0.445-1.011 0.748-1.628 0.87s-1.256 0.060-1.837-0.181c-0.581-0.241-1.078-0.648-1.427-1.171s-0.536-1.138-0.536-1.767c0-0.843 0.335-1.652 0.931-2.249s1.405-0.931 2.249-0.931zM5.335 18.059c-0.629 0-1.244-0.186-1.767-0.536s-0.93-0.846-1.171-1.427c-0.241-0.581-0.304-1.22-0.181-1.837s0.426-1.183 0.87-1.628c0.445-0.445 1.011-0.748 1.628-0.87s1.256-0.060 1.837 0.181c0.581 0.241 1.078 0.648 1.427 1.171s0.536 1.138 0.536 1.767c0 0.843-0.335 1.652-0.931 2.249s-1.405 0.931-2.249 0.931zM24.414 27.598c-0.629 0-1.244-0.186-1.767-0.536s-0.93-0.846-1.171-1.427-0.304-1.22-0.181-1.837c0.123-0.617 0.426-1.184 0.87-1.628s1.011-0.748 1.628-0.87c0.617-0.123 1.256-0.060 1.837 0.181s1.078 0.648 1.427 1.171c0.349 0.523 0.536 1.138 0.536 1.767 0 0.843-0.335 1.652-0.931 2.248s-1.405 0.931-2.248 0.931z"></path>
</svg>
