<!-- Generated by IcoMoon.io -->
<svg version="1.1" xmlns="http://www.w3.org/2000/svg" width="26" height="32" viewBox="0 0 26 32">
<title>list-icon</title>
<path fill="#fff" d="M24.435 0h-23.302c-0.615 0-1.133 0.518-1.133 1.133v27.898c0 0.55 0.291 1.068 0.777 1.327s1.068 0.227 1.521-0.065l2.007-1.359c0.421-0.259 0.939-0.259 1.359 0l2.395 1.586c0.485 0.324 1.133 0.324 1.651 0l2.395-1.586c0.421-0.259 0.939-0.259 1.359 0l2.395 1.586c0.259 0.162 0.55 0.259 0.809 0.259 0.291 0 0.583-0.097 0.841-0.259l2.395-1.586c0.421-0.259 0.939-0.259 1.359 0l2.039 1.359c0.453 0.291 1.036 0.324 1.521 0.065s0.777-0.777 0.777-1.327v-27.898c-0.032-0.615-0.55-1.133-1.165-1.133zM5.47 6.052h14.596c0.453 0 0.841 0.356 0.841 0.841 0 0.453-0.356 0.841-0.841 0.841h-14.596c-0.453 0-0.841-0.356-0.841-0.841s0.388-0.841 0.841-0.841zM5.47 11.198h14.596c0.453 0 0.841 0.356 0.841 0.841 0 0.453-0.356 0.841-0.841 0.841h-14.596c-0.453 0-0.841-0.356-0.841-0.841 0-0.453 0.388-0.841 0.841-0.841zM20.033 23.14h-14.564c-0.453 0-0.841-0.356-0.841-0.841s0.356-0.841 0.841-0.841h14.564c0.453 0 0.841 0.356 0.841 0.841s-0.388 0.841-0.841 0.841zM20.033 17.994h-14.564c-0.453 0-0.841-0.356-0.841-0.841 0-0.453 0.356-0.841 0.841-0.841h14.564c0.453 0 0.841 0.356 0.841 0.841-0.032 0.485-0.388 0.841-0.841 0.841z"></path>
</svg>
