<!-- Generated by IcoMoon.io -->
<svg version="1.1" xmlns="http://www.w3.org/2000/svg" width="101" height="32" viewBox="0 0 101 32">
<title>mustache-icon</title>
<path fill="#fff" d="M100.276 12.297c-2.482 7.271-8.883 18.909-24.548 19.658-12.473 0.595-21.059-4.816-25.442-10.784-4.383 5.967-12.969 11.38-25.441 10.784-15.666-0.748-22.068-12.386-24.549-19.658-0.198-0.604-1.084-3.638 1.631-1.999 0.287 0.218 0.595 0.434 0.931 0.64 0.002 0.001 0.003 0.002 0.004 0.003 1.609 0.99 3.797 1.791 6.727 1.931 8.477 0.405 15.916-13.423 27.783-12.856 3.044 0.145 7.239 0.831 12.913 6.2 5.674-5.369 9.869-6.054 12.913-6.2 11.868-0.567 19.307 13.261 27.784 12.856 2.929-0.14 5.118-0.941 6.726-1.931 0.001-0.001 0.002-0.002 0.005-0.003 0.336-0.207 0.644-0.422 0.931-0.64 2.715-1.639 1.83 1.395 1.632 1.999z"></path>
</svg>
