<!-- Generated by IcoMoon.io -->
<svg version="1.1" xmlns="http://www.w3.org/2000/svg" width="40" height="32" viewBox="0 0 40 32">
<title>send-icon</title>
<path fill="#fff" d="M2.87 14.906l8.15 3.042 3.154 10.145c0.202 0.65 0.996 0.89 1.524 0.459l4.543-3.703c0.476-0.388 1.154-0.407 1.652-0.046l8.194 5.949c0.564 0.41 1.363 0.101 1.505-0.581l6.002-28.871c0.154-0.745-0.577-1.366-1.286-1.092l-33.446 12.903c-0.825 0.318-0.818 1.487 0.010 1.797zM13.666 16.329l15.927-9.81c0.286-0.176 0.581 0.211 0.335 0.439l-13.145 12.219c-0.462 0.43-0.76 1.006-0.844 1.63l-0.448 3.318c-0.059 0.443-0.682 0.487-0.804 0.058l-1.722-6.051c-0.197-0.69 0.090-1.427 0.701-1.804z"></path>
</svg>
