<!-- Generated by IcoMoon.io -->
<svg version="1.1" xmlns="http://www.w3.org/2000/svg" width="41" height="32" viewBox="0 0 41 32">
<title>twiter-icon</title>
<path fill="#fff" d="M38.89 3.865c-1.435 0.629-2.964 1.047-4.558 1.249 1.64-0.979 2.891-2.518 3.48-4.372-1.529 0.912-3.217 1.555-5.016 1.915-1.452-1.546-3.521-2.503-5.778-2.503-4.379 0-7.905 3.555-7.905 7.912 0 0.627 0.053 1.23 0.183 1.804-6.576-0.321-12.395-3.473-16.304-8.274-0.682 1.184-1.083 2.539-1.083 3.998 0 2.739 1.411 5.168 3.514 6.574-1.271-0.024-2.518-0.393-3.574-0.974 0 0.024 0 0.055 0 0.087 0 3.844 2.742 7.037 6.337 7.772-0.644 0.176-1.346 0.26-2.074 0.26-0.506 0-1.018-0.029-1.498-0.135 1.025 3.133 3.933 5.436 7.391 5.51-2.691 2.105-6.108 3.374-9.807 3.374-0.649 0-1.271-0.029-1.893-0.108 3.504 2.26 7.656 3.55 12.135 3.55 14.556 0 22.513-12.058 22.513-22.509 0-0.35-0.012-0.687-0.029-1.022 1.57-1.114 2.889-2.506 3.965-4.107z"></path>
</svg>
