<svg width="7" height="13" viewBox="0 0 7 13" fill="none" xmlns="http://www.w3.org/2000/svg">
<path d="M4.53733 4.30521V3.25474C4.53499 3.13305 4.54213 3.01137 4.55869 2.89083C4.57489 2.80062 4.60818 2.71448 4.6567 2.63722C4.71348 2.54953 4.80143 2.48767 4.90206 2.46464C5.04994 2.42871 5.20178 2.41257 5.35375 2.41662H6.37944V0.328437H4.73627C4.36721 0.292244 3.9948 0.334734 3.64275 0.453197C3.2907 0.571661 2.96674 0.763501 2.69153 1.01649C2.24033 1.58751 2.01838 2.31141 2.07036 3.0424V4.30521H0.842041V6.39114H2.07036V12.4538H4.53438V6.39114H6.1746L6.39417 4.30521H4.53733Z" fill="white"/>
</svg>
