<svg width="14" height="11" viewBox="0 0 14 11" fill="none" xmlns="http://www.w3.org/2000/svg">
<path d="M13.1475 1.55738H11.459L10.7541 0.278689C10.6557 0.114754 10.4754 0 10.2951 0H7.27869C7.08197 0 6.90164 0.114754 6.81967 0.278689L6.13115 1.55738H3.5082C3.47541 1.55738 3.44262 1.52459 3.44262 1.4918V1.2459C3.44262 1.04918 3.27869 0.901639 3.09836 0.901639H2.47541C2.27869 0.901639 2.13115 1.06557 2.13115 1.2459V1.4918C2.13115 1.52459 2.09836 1.55738 2.06557 1.55738H0.836066C0.377049 1.55738 0 1.93443 0 2.39344V10.0656C0 10.5246 0.377049 10.9016 0.836066 10.9016H13.1639C13.6229 10.9016 14 10.5246 14 10.0656V2.39344C13.9836 1.93443 13.6066 1.55738 13.1475 1.55738ZM8.78689 9.16393C7.16393 9.16393 5.83607 7.83607 5.83607 6.21311C5.83607 4.59016 7.16393 3.2623 8.78689 3.2623C10.4098 3.2623 11.7377 4.59016 11.7377 6.21311C11.7377 7.83607 10.4098 9.16393 8.78689 9.16393Z" fill="white"/>
<path d="M8.78682 8.08203C9.81896 8.08203 10.6557 7.24532 10.6557 6.21318C10.6557 5.18104 9.81896 4.34433 8.78682 4.34433C7.75468 4.34433 6.91797 5.18104 6.91797 6.21318C6.91797 7.24532 7.75468 8.08203 8.78682 8.08203Z" fill="white"/>
</svg>
