<svg width="11" height="12" viewBox="0 0 11 12" fill="none" xmlns="http://www.w3.org/2000/svg">
<path d="M5.08206 9.89289L5.07121 9.88213L5.05972 9.87205C3.62126 8.61024 2.47197 7.58781 1.67745 6.62925C0.888518 5.67742 0.5 4.84721 0.5 3.97596C0.5 2.56535 1.59217 1.47632 3.025 1.47632C3.81212 1.47632 4.60865 1.84734 5.11965 2.44619L5.50034 2.89232L5.88063 2.44585C6.39029 1.84752 7.18763 1.47632 7.975 1.47632C9.40784 1.47632 10.5 2.56535 10.5 3.97596C10.5 4.84721 10.1115 5.67742 9.32255 6.62925C8.52803 7.58781 7.37874 8.61024 5.94028 9.87205L5.92879 9.88213L5.91794 9.89289L5.5 10.3073L5.08206 9.89289Z" stroke="white"/>
</svg>
