<svg width="12" height="12" viewBox="0 0 12 12" fill="none" xmlns="http://www.w3.org/2000/svg">
<path d="M10.7851 0.472114C10.6552 0.337318 10.4991 0.23057 10.3264 0.15846C10.1537 0.0863495 9.96797 0.0504071 9.78081 0.0528512H1.52965C1.34249 0.0504507 1.15682 0.086413 0.98409 0.158521C0.811361 0.230628 0.655233 0.337353 0.525332 0.472114C0.390403 0.601925 0.283518 0.75802 0.21128 0.930758C0.139042 1.1035 0.102983 1.28921 0.105332 1.47643V9.72906C0.103185 9.91603 0.139342 10.1015 0.211574 10.2739C0.283806 10.4464 0.390585 10.6023 0.525332 10.7319C0.655233 10.8667 0.811361 10.9734 0.98409 11.0455C1.15682 11.1176 1.34249 11.1536 1.52965 11.1512H9.78228C10.1592 11.1492 10.5202 10.9986 10.7868 10.7321C11.0533 10.4655 11.2039 10.1045 11.2059 9.72759V1.47643C11.2081 1.28916 11.1719 1.10341 11.0996 0.930669C11.0272 0.757928 10.9202 0.601862 10.7851 0.472114ZM4.09091 4.05243C4.29745 3.84752 4.54292 3.68601 4.81284 3.57744C5.08277 3.46886 5.37169 3.4154 5.6626 3.42022C5.95467 3.41492 6.24484 3.46812 6.51603 3.5767C6.78722 3.68527 7.03394 3.84703 7.24165 4.05243C7.45118 4.24715 7.6176 4.48361 7.73017 4.74656C7.84274 5.00952 7.89896 5.29315 7.89523 5.57917C7.89922 5.86544 7.84311 6.14936 7.73053 6.41259C7.61795 6.67583 7.4514 6.91252 7.24165 7.10738C7.03396 7.31281 6.78725 7.47459 6.51606 7.58317C6.24486 7.69175 5.95467 7.74493 5.6626 7.73959C5.37169 7.7444 5.08277 7.69095 4.81284 7.58237C4.54292 7.47379 4.29745 7.31229 4.09091 7.10738C3.88119 6.91249 3.71467 6.6758 3.60209 6.41257C3.48952 6.14934 3.43339 5.86543 3.43733 5.57917C3.4336 5.29315 3.48982 5.00952 3.60239 4.74656C3.71496 4.48361 3.88138 4.24715 4.09091 4.05243ZM9.94733 9.43138C9.94862 9.48989 9.93769 9.54803 9.91523 9.60208C9.89277 9.65613 9.85929 9.7049 9.81691 9.74527C9.77622 9.78616 9.72773 9.81845 9.67431 9.84022C9.62089 9.86199 9.56364 9.8728 9.50596 9.87201H1.78239C1.72394 9.87342 1.66582 9.86295 1.61154 9.84124C1.55726 9.81952 1.50796 9.78701 1.46662 9.74567C1.42528 9.70433 1.39277 9.65503 1.37105 9.60075C1.34934 9.54647 1.33887 9.48835 1.34028 9.4299V4.74948H2.36081C2.26308 5.05559 2.21337 5.37499 2.21344 5.69632C2.20775 6.13965 2.29504 6.57924 2.46967 6.98676C2.6443 7.39428 2.90241 7.76068 3.22733 8.06232C3.54688 8.37942 3.92662 8.62941 4.3442 8.79758C4.76179 8.96575 5.20879 9.04872 5.65891 9.04159C6.26856 9.04765 6.86906 8.89314 7.40007 8.59359C7.91734 8.30464 8.34937 7.88455 8.6527 7.37559C8.95931 6.86914 9.11949 6.2876 9.11544 5.69559C9.1155 5.37426 9.06579 5.05486 8.96807 4.74875H9.94365V9.43064L9.94733 9.43138ZM9.94733 2.97885C9.94802 3.04455 9.93559 3.10973 9.91077 3.17056C9.88594 3.2314 9.84922 3.28666 9.80276 3.33312C9.7563 3.37958 9.70104 3.4163 9.6402 3.44113C9.57937 3.46595 9.51419 3.47838 9.44849 3.47769H8.19144C8.12574 3.47838 8.06056 3.46595 7.99973 3.44113C7.93889 3.4163 7.88363 3.37958 7.83717 3.33312C7.79071 3.28666 7.75399 3.2314 7.72916 3.17056C7.70434 3.10973 7.69191 3.04455 7.6926 2.97885V1.78664C7.69224 1.72126 7.70512 1.65649 7.73044 1.59621C7.75577 1.53594 7.79302 1.48141 7.83996 1.4359C7.88557 1.38808 7.94064 1.35028 8.00166 1.32491C8.06268 1.29954 8.12831 1.28715 8.19439 1.28854H9.44849C9.51444 1.28721 9.57995 1.29963 9.64084 1.325C9.70173 1.35037 9.75668 1.38814 9.80217 1.4359C9.84912 1.48141 9.88637 1.53594 9.9117 1.59621C9.93702 1.65649 9.9499 1.72126 9.94954 1.78664L9.94733 2.97885Z" fill="white"/>
</svg>
