<svg width="13" height="14" viewBox="0 0 13 14" fill="none" xmlns="http://www.w3.org/2000/svg">
<path d="M10.6813 8.36437C10.3314 8.36639 9.98661 8.44753 9.67259 8.60173C9.35858 8.75593 9.08352 8.97918 8.86803 9.25476L4.56447 7.10762C4.68207 6.71747 4.68207 6.30131 4.56447 5.91116L8.86803 3.76402C9.20984 4.19283 9.69256 4.48663 10.2305 4.59323C10.7684 4.69982 11.3267 4.61233 11.8062 4.34627C12.2857 4.08022 12.6554 3.65283 12.8496 3.14C13.0438 2.62718 13.05 2.06211 12.8671 1.54516C12.6841 1.0282 12.3239 0.592814 11.8503 0.316319C11.3768 0.0398252 10.8205 -0.0598811 10.2804 0.0349076C9.74029 0.129696 9.25124 0.412845 8.90012 0.834068C8.54901 1.25529 8.35854 1.78733 8.36255 2.33569C8.36536 2.53811 8.39498 2.73927 8.45066 2.93392L4.1471 5.08106C3.85011 4.70026 3.44163 4.4217 2.97868 4.28425C2.51573 4.1468 2.02142 4.15733 1.56474 4.31436C1.10807 4.47139 0.711814 4.76709 0.431298 5.16019C0.150781 5.55328 0 6.02415 0 6.50707C0 6.98999 0.150781 7.46086 0.431298 7.85396C0.711814 8.24705 1.10807 8.54276 1.56474 8.69979C2.02142 8.85682 2.51573 8.86734 2.97868 8.7299C3.44163 8.59245 3.85011 8.31388 4.1471 7.93309L8.45066 10.0802C8.39458 10.2764 8.36494 10.4791 8.36255 10.6831C8.36255 11.1417 8.49854 11.59 8.75332 11.9713C9.00811 12.3526 9.37024 12.6498 9.79393 12.8253C10.2176 13.0008 10.6838 13.0467 11.1336 12.9573C11.5834 12.8678 11.9966 12.647 12.3209 12.3227C12.6451 11.9984 12.866 11.5852 12.9554 11.1355C13.0449 10.6857 12.999 10.2194 12.8235 9.79576C12.648 9.37207 12.3508 9.00993 11.9695 8.75515C11.5882 8.50036 11.1399 8.36437 10.6813 8.36437ZM10.6813 0.94445C10.9564 0.94445 11.2254 1.02604 11.4542 1.17892C11.683 1.33179 11.8613 1.54907 11.9666 1.80328C12.0719 2.0575 12.0995 2.33723 12.0458 2.6071C11.9921 2.87697 11.8596 3.12487 11.665 3.31944C11.4705 3.514 11.2226 3.64651 10.9527 3.70019C10.6828 3.75387 10.4031 3.72632 10.1489 3.62102C9.89466 3.51572 9.67737 3.3374 9.5245 3.10861C9.37163 2.87983 9.29004 2.61085 9.29004 2.33569C9.29004 1.96671 9.43661 1.61284 9.69752 1.35193C9.95843 1.09103 10.3123 0.94445 10.6813 0.94445ZM2.33386 7.90063C2.0587 7.90063 1.78972 7.81903 1.56093 7.66616C1.33214 7.51329 1.15383 7.29601 1.04853 7.04179C0.943227 6.78758 0.915676 6.50785 0.969357 6.23797C1.02304 5.9681 1.15554 5.72021 1.35011 5.52564C1.54468 5.33107 1.79257 5.19857 2.06244 5.14489C2.33232 5.09121 2.61205 5.11876 2.86626 5.22406C3.12048 5.32936 3.33776 5.50767 3.49063 5.73646C3.6435 5.96525 3.7251 6.23423 3.7251 6.50939C3.7251 6.87837 3.57852 7.23224 3.31761 7.49314C3.05671 7.75405 2.70284 7.90063 2.33386 7.90063ZM10.6813 12.0743C10.4061 12.0743 10.1371 11.9927 9.90834 11.8399C9.67956 11.687 9.50124 11.4697 9.39594 11.2155C9.29064 10.9613 9.26309 10.6816 9.31677 10.4117C9.37045 10.1418 9.50295 9.89391 9.69752 9.69934C9.89209 9.50478 10.14 9.37227 10.4099 9.31859C10.6797 9.26491 10.9595 9.29246 11.2137 9.39776C11.4679 9.50306 11.6852 9.68138 11.838 9.91017C11.9909 10.139 12.0725 10.4079 12.0725 10.6831C12.0725 11.0521 11.9259 11.4059 11.665 11.6668C11.4041 11.9278 11.0503 12.0743 10.6813 12.0743Z" fill="white"/>
</svg>
