<svg width="18" height="14" viewBox="0 0 18 14" fill="none" xmlns="http://www.w3.org/2000/svg">
<path d="M11.7201 3.79984C12.8312 4.91093 13.2434 6.48796 12.9567 7.92163L12.0785 7.04351L10.8062 8.31588L13.9065 11.4162L17.0068 8.31588L15.7344 7.04351L14.7487 8.02915C15.0892 6.07578 14.4979 4.01489 12.9925 2.52746C10.8599 0.394887 7.59834 0.108154 5.14319 1.63142L6.46933 2.95756C8.1718 2.07944 10.3044 2.36618 11.7201 3.79984Z" fill="white"/>
<path d="M11.8815 12.3839L10.5554 11.0578C8.85288 11.918 6.7203 11.6312 5.28664 10.2155C4.17555 9.1044 3.76337 7.52737 4.0501 6.09371L4.92822 6.97183L6.2006 5.69945L3.1003 2.59915L0 5.69945L1.27238 6.97183L2.25802 5.98618C1.93545 7.93955 2.52683 10.0004 4.03218 11.4879C6.16476 13.6204 9.42635 13.9251 11.8815 12.3839Z" fill="white"/>
</svg>
