<svg width="12" height="15" viewBox="0 0 12 15" fill="none" xmlns="http://www.w3.org/2000/svg">
<path d="M11.4539 0H0.530973C0.242731 0 0 0.242731 0 0.530973V13.6081C0 13.866 0.136536 14.1087 0.364096 14.2301C0.591656 14.3515 0.864728 14.3363 1.07712 14.1997L2.0177 13.5626C2.21492 13.4412 2.45765 13.4412 2.65487 13.5626L3.7775 14.3059C4.00506 14.4576 4.30847 14.4576 4.5512 14.3059L5.67383 13.5626C5.87105 13.4412 6.11378 13.4412 6.311 13.5626L7.43363 14.3059C7.55499 14.3818 7.69153 14.4273 7.8129 14.4273C7.94943 14.4273 8.08597 14.3818 8.20733 14.3059L9.32996 13.5626C9.52718 13.4412 9.76991 13.4412 9.96713 13.5626L10.9229 14.1997C11.1353 14.3363 11.4083 14.3515 11.6359 14.2301C11.8635 14.1087 12 13.866 12 13.6081V0.530973C11.9848 0.242731 11.7421 0 11.4539 0ZM2.56384 2.83692H9.40582C9.61821 2.83692 9.80025 3.00379 9.80025 3.23135C9.80025 3.44374 9.63338 3.62579 9.40582 3.62579H2.56384C2.35145 3.62579 2.16941 3.45891 2.16941 3.23135C2.16941 3.00379 2.35145 2.83692 2.56384 2.83692ZM2.56384 5.24905H9.40582C9.61821 5.24905 9.80025 5.41593 9.80025 5.64349C9.80025 5.85588 9.63338 6.03793 9.40582 6.03793H2.56384C2.35145 6.03793 2.16941 5.87105 2.16941 5.64349C2.16941 5.4311 2.35145 5.24905 2.56384 5.24905ZM9.39065 10.847H2.56384C2.35145 10.847 2.16941 10.6802 2.16941 10.4526C2.16941 10.225 2.33628 10.0582 2.56384 10.0582H9.39065C9.60303 10.0582 9.78508 10.225 9.78508 10.4526C9.78508 10.6802 9.60303 10.847 9.39065 10.847ZM9.39065 8.43489H2.56384C2.35145 8.43489 2.16941 8.26801 2.16941 8.04045C2.16941 7.82807 2.33628 7.64602 2.56384 7.64602H9.39065C9.60303 7.64602 9.78508 7.81289 9.78508 8.04045C9.76991 8.26801 9.60303 8.43489 9.39065 8.43489Z" fill="white"/>
</svg>
