<svg width="19" height="28" viewBox="0 0 19 28" fill="none" xmlns="http://www.w3.org/2000/svg">
<path d="M15.299 6.31465C14.623 4.02165 13.848 1.92065 13.848 1.92065C13.848 1.92065 14.102 2.92265 12.715 5.21565C10.785 8.40065 10.902 8.10966 0 23.5617L2.807 27.4657L14.879 9.57565C14.879 9.57565 15.98 8.60565 15.299 6.31465Z" fill="white"/>
<path d="M13.277 14.2827L10.582 18.2377L15.477 27.7847L18.223 23.7507L13.277 14.2827Z" fill="white"/>
<path d="M6.2439 2.0256L6.3609 1.6626C6.2989 1.7686 6.2599 1.8926 6.2439 2.0256Z" fill="white"/>
<path d="M6.52708 12.7526L8.92008 8.68363L6.94308 4.27863C6.94308 4.27863 6.13808 2.91363 6.24408 2.02563L4.77708 6.61963C4.77708 6.61963 4.29508 7.83064 5.00608 9.15563C5.71308 10.4806 6.52708 12.7526 6.52708 12.7526Z" fill="white"/>
<path d="M12.846 4.05368C12.846 4.05368 14.09 2.29368 13.475 1.06668C13.475 1.06668 10.737 -1.11332 6.97696 0.759683C6.97696 0.759683 5.78196 1.46768 7.29896 4.05368C7.29896 4.05368 10.971 3.08368 12.846 4.05368Z" fill="white"/>
</svg>
