<svg width="22" height="7" viewBox="0 0 22 7" fill="none" xmlns="http://www.w3.org/2000/svg">
<path d="M21.9354 2.69006C21.3925 4.28063 19.9922 6.82647 16.5655 6.99016C13.837 7.12023 11.9589 5.93658 11 4.6312C10.0412 5.93658 8.16313 7.12047 5.43484 6.99016C2.00795 6.82647 0.607552 4.28063 0.0646769 2.69006C0.0214714 2.5579 -0.172343 1.89431 0.421549 2.25277C0.484282 2.30053 0.551654 2.3476 0.625127 2.39281C0.625615 2.39304 0.625859 2.39328 0.626103 2.39351C0.978094 2.61007 1.45677 2.78535 2.09753 2.81596C3.95195 2.90453 5.57911 -0.120332 8.17509 0.00371425C8.84099 0.0354792 9.75856 0.185493 10.9998 1.35987C12.241 0.185493 13.1586 0.0354792 13.8245 0.00371425C16.4207 -0.120332 18.0479 2.90453 19.9023 2.81596C20.5431 2.78535 21.0218 2.61007 21.3737 2.39351C21.374 2.39328 21.3742 2.39304 21.3747 2.39281C21.4482 2.3476 21.5156 2.30053 21.5783 2.25277C22.1722 1.89431 21.9786 2.5579 21.9354 2.69006Z" fill="white"/>
</svg>
