<svg width="15" height="12" viewBox="0 0 15 12" fill="none" xmlns="http://www.w3.org/2000/svg">
<path d="M1.07631 5.58986L4.1324 6.73049L5.3153 10.5347C5.39099 10.7783 5.68892 10.8684 5.88668 10.7067L7.5902 9.31795C7.76876 9.17246 8.02311 9.16521 8.20972 9.30067L11.2823 11.5314C11.4938 11.6852 11.7935 11.5692 11.8466 11.3136L14.0974 0.486858C14.1553 0.207624 13.8809 -0.0253209 13.615 0.0775128L1.07273 4.91596C0.763209 5.03533 0.765905 5.47354 1.07631 5.58986ZM5.12467 6.1233L11.0974 2.44468C11.2048 2.37876 11.3152 2.5239 11.223 2.60941L6.29377 7.19138C6.12051 7.35266 6.00874 7.5685 5.97709 7.80277L5.80918 9.04712C5.78694 9.21326 5.55355 9.22976 5.50771 9.06896L4.86192 6.79986C4.78796 6.54105 4.89574 6.2646 5.12467 6.1233Z" fill="white"/>
</svg>
