<svg width="0" height="0" class="hidden">
  <symbol aria-hidden="true" xmlns="http://www.w3.org/2000/svg" overflow="hidden" id="symbol-defs">
    <defs>
      <symbol id="icon-facebook-icon" viewBox="0 0 17 32">
        <path fill="var(--color1, #fff)" d="M11.169 10.597V8.011a5.71 5.71 0 0 1 .053-.896c.04-.222.122-.434.241-.624a.982.982 0 0 1 .604-.425 4.25 4.25 0 0 1 1.112-.118h2.525V.808h-4.045c-.908-.089-1.825.015-2.692.307s-1.664.764-2.341 1.387a7.221 7.221 0 0 0-1.529 4.987v3.108H2.073v5.135h3.024v14.923h6.065V15.732h4.037l.54-5.135h-4.571z"></path>
      </symbol>
      <symbol id="icon-foto-icon" viewBox="0 0 41 32">
        <path fill="var(--color1, #fff)" d="M38.247 4.531h-4.912L31.284.811C30.998.334 30.473 0 29.949 0h-8.775c-.572 0-1.097.334-1.335.811l-2.003 3.72h-7.63c-.095 0-.191-.095-.191-.191v-.715c0-.572-.477-1.002-1.001-1.002H7.202c-.572 0-1.001.477-1.001 1.002v.715c0 .095-.095.191-.191.191H2.433A2.443 2.443 0 0 0 .001 6.963v22.319a2.443 2.443 0 0 0 2.432 2.432h35.863a2.443 2.443 0 0 0 2.432-2.432V6.963c-.048-1.335-1.144-2.432-2.48-2.432zM25.562 26.659c-4.721 0-8.584-3.863-8.584-8.584s3.863-8.584 8.584-8.584 8.584 3.863 8.584 8.584-3.863 8.584-8.584 8.584z"></path>
        <path fill="var(--color1, #fff)" d="M25.562 23.511a5.437 5.437 0 1 0 0-10.873 5.437 5.437 0 0 0 0 10.873z"></path>
      </symbol>
      <symbol id="icon-heart-icon" viewBox="0 0 29 32">
        <path fill="none" stroke="var(--color1, #fff)" stroke-width="2.667" d="M13.552 26.381l-.029-.029-.031-.027c-3.836-3.365-6.901-6.091-9.019-8.647-2.104-2.538-3.14-4.752-3.14-7.075 0-3.762 2.912-6.666 6.733-6.666 2.099 0 4.223.989 5.586 2.586l1.015 1.19 1.014-1.191c1.359-1.596 3.485-2.585 5.585-2.585 3.821 0 6.733 2.904 6.733 6.666 0 2.323-1.036 4.537-3.14 7.075-2.119 2.556-5.183 5.283-9.019 8.647l-.031.027-1.143 1.134-1.114-1.105z"></path>
      </symbol>
      <symbol id="icon-instagram-icon" viewBox="0 0 32 32">
        <path fill="var(--color1, #fff)" d="M28.76 1.259A3.656 3.656 0 0 0 26.082.141H4.079a3.652 3.652 0 0 0-2.678 1.118 3.67 3.67 0 0 0-1.12 2.678v22.007a3.657 3.657 0 0 0 1.12 2.674 3.656 3.656 0 0 0 2.678 1.118h22.007a3.816 3.816 0 0 0 3.797-3.797V3.936a3.635 3.635 0 0 0-1.122-2.678zm-17.851 9.547A5.802 5.802 0 0 1 15.1 9.12a5.85 5.85 0 0 1 4.211 1.686 5.455 5.455 0 0 1 1.743 4.071 5.455 5.455 0 0 1-1.743 4.075 5.845 5.845 0 0 1-4.211 1.686 5.82 5.82 0 0 1-4.191-1.686c-.559-.52-1.003-1.151-1.304-1.853s-.45-1.459-.439-2.222a5.46 5.46 0 0 1 1.743-4.071zM26.526 25.15a1.126 1.126 0 0 1-.348.837 1.145 1.145 0 0 1-.829.338H4.753a1.148 1.148 0 0 1-1.179-1.179V12.665h2.721a8.288 8.288 0 0 0-.393 2.525 8.45 8.45 0 0 0 2.703 6.309 9.01 9.01 0 0 0 6.484 2.612 9.261 9.261 0 0 0 4.643-1.195 9.004 9.004 0 0 0 3.34-3.248 8.533 8.533 0 0 0 1.234-4.48c0-.857-.132-1.709-.393-2.525h2.602v12.485l.01.002zm0-17.206a1.333 1.333 0 0 1-.386.945 1.313 1.313 0 0 1-.944.386h-3.352a1.318 1.318 0 0 1-1.33-1.331V4.765a1.287 1.287 0 0 1 .393-.936 1.268 1.268 0 0 1 .945-.393h3.344a1.27 1.27 0 0 1 .943.393 1.283 1.283 0 0 1 .393.936l-.006 3.179z"></path>
      </symbol>
      <symbol id="icon-line-icon" viewBox="0 0 41 32">
        <path fill="var(--color1, #fff)" d="M26.789 8.685c2.54 2.54 3.482 6.144 2.826 9.421l-2.007-2.007-2.908 2.908 7.086 7.086 7.086-7.086-2.908-2.908-2.253 2.253c.778-4.465-.573-9.175-4.014-12.575C24.822.903 17.368.247 11.756 3.729l3.031 3.031a10.253 10.253 0 0 1 12.002 1.925zm.369 19.621l-3.031-3.031c-3.891 1.966-8.766 1.311-12.043-1.925-2.54-2.54-3.482-6.144-2.826-9.421l2.007 2.007 2.908-2.908-7.086-7.086-7.086 7.086 2.908 2.908 2.253-2.253c-.737 4.465.614 9.175 4.055 12.575a14.478 14.478 0 0 0 17.941 2.048z"></path>
      </symbol>
      <symbol id="icon-line-soc-icon" viewBox="0 0 30 32">
        <path fill="var(--color1, #fff)" d="M24.414 19.119a5.3 5.3 0 0 0-4.145 2.036l-9.837-4.908a4.735 4.735 0 0 0 0-2.735l9.837-4.908a5.297 5.297 0 0 0 6.716 1.331 5.3 5.3 0 1 0-7.871-4.595c.006.463.074.922.201 1.367l-9.837 4.908a5.299 5.299 0 0 0-8.494.181 5.301 5.301 0 0 0 8.494 6.339l9.837 4.908a5.223 5.223 0 0 0-.201 1.378 5.3 5.3 0 1 0 5.3-5.3zm0-16.96a3.184 3.184 0 0 1 2.938 1.963 3.174 3.174 0 0 1-.689 3.465 3.182 3.182 0 0 1-5.428-2.249 3.176 3.176 0 0 1 3.18-3.18zm-19.079 15.9a3.176 3.176 0 0 1-2.938-1.963 3.174 3.174 0 0 1 .689-3.465 3.182 3.182 0 0 1 5.428 2.249 3.176 3.176 0 0 1-3.18 3.18zm19.079 9.539a3.176 3.176 0 0 1-2.938-1.963 3.174 3.174 0 0 1 .689-3.465 3.176 3.176 0 0 1 3.465-.689 3.179 3.179 0 0 1-1.216 6.117z"></path>
      </symbol>
      <symbol id="icon-list-icon" viewBox="0 0 26 32">
        <path fill="var(--color1, #fff)" d="M24.435 0H1.133C.518 0 0 .518 0 1.133v27.898c0 .55.291 1.068.777 1.327s1.068.227 1.521-.065l2.007-1.359a1.286 1.286 0 0 1 1.359 0l2.395 1.586c.485.324 1.133.324 1.651 0l2.395-1.586a1.286 1.286 0 0 1 1.359 0l2.395 1.586c.259.162.55.259.809.259a1.6 1.6 0 0 0 .841-.259l2.395-1.586a1.286 1.286 0 0 1 1.359 0l2.039 1.359c.453.291 1.036.324 1.521.065s.777-.777.777-1.327V1.133C25.568.518 25.05 0 24.435 0zM5.47 6.052h14.596c.453 0 .841.356.841.841a.835.835 0 0 1-.841.841H5.47c-.453 0-.841-.356-.841-.841s.388-.841.841-.841zm0 5.146h14.596c.453 0 .841.356.841.841a.835.835 0 0 1-.841.841H5.47a.835.835 0 0 1-.841-.841c0-.453.388-.841.841-.841zM20.033 23.14H5.469c-.453 0-.841-.356-.841-.841s.356-.841.841-.841h14.564c.453 0 .841.356.841.841s-.388.841-.841.841zm0-5.146H5.469a.835.835 0 0 1-.841-.841c0-.453.356-.841.841-.841h14.564c.453 0 .841.356.841.841-.032.485-.388.841-.841.841z"></path>
      </symbol>
      <symbol id="icon-logo-footer-icon" viewBox="0 0 30 32">
        <path fill="var(--color1, #fff)" d="M29.598 11.977l-3.989-7.059-6.878 4.094V.824H10.89v8.188L3.874 4.918.022 11.977 6.9 16.071.022 20.165l3.852 6.918 7.016-4.094v8.188h7.841v-8.188l6.878 4.094 3.989-6.918-7.016-4.094 7.016-4.094z"></path>
      </symbol>
      <symbol id="icon-logo-icon" viewBox="0 0 22 32">
        <path d="M17.485 7.217c-.773-2.621-1.658-5.022-1.658-5.022s.29 1.145-1.295 3.766C12.326 9.601 12.46 9.268.001 26.928l3.208 4.462 13.797-20.446s1.258-1.109.48-3.727zm-2.311 9.106l-3.08 4.52 5.594 10.911 3.138-4.61-5.653-10.821zM7.136 2.315L7.27 1.9a1.085 1.085 0 0 0-.134.415zm.324 12.259l2.735-4.65L7.936 4.89s-.92-1.56-.799-2.575L5.46 7.565s-.551 1.384.262 2.898c.808 1.514 1.738 4.111 1.738 4.111z"></path>
        <path d="M14.681 4.633s1.422-2.011.719-3.414c0 0-3.129-2.491-7.426-.351 0 0-1.366.809.368 3.765 0 0 4.197-1.109 6.339 0z"></path>
      </symbol>
      <symbol id="icon-menu-icon" viewBox="0 0 40 32">
        <path d="M40 4H0V0h40v4zm0 14H0v-4h40v4zm0 14H0v-4h40v4z"></path>
      </symbol>
      <symbol id="icon-mustache-icon" viewBox="0 0 101 32">
        <path fill="var(--color1, #fff)" d="M100.276 12.297c-2.482 7.271-8.883 18.909-24.548 19.658-12.473.595-21.059-4.816-25.442-10.784-4.383 5.967-12.969 11.38-25.441 10.784C9.179 31.207 2.777 19.569.296 12.297c-.198-.604-1.084-3.638 1.631-1.999a11.303 11.303 0 0 0 .935.643c1.609.99 3.797 1.791 6.727 1.931C18.066 13.277 25.505-.551 37.372.016c3.044.145 7.239.831 12.913 6.2C55.959.847 60.154.162 63.198.016c11.868-.567 19.307 13.261 27.784 12.856 2.929-.14 5.118-.941 6.726-1.931a11.555 11.555 0 0 0 .936-.643c2.715-1.639 1.83 1.395 1.632 1.999z"></path>
      </symbol>
      <symbol id="icon-send-icon" viewBox="0 0 40 32">
        <path fill="var(--color1, #fff)" d="M2.87 14.906l8.15 3.042 3.154 10.145a.96.96 0 0 0 1.524.459l4.543-3.703a1.355 1.355 0 0 1 1.652-.046l8.194 5.949a.96.96 0 0 0 1.505-.581L37.594 1.3A.96.96 0 0 0 36.308.208L2.862 13.111c-.825.318-.818 1.487.01 1.797zm10.796 1.423l15.927-9.81c.286-.176.581.211.335.439L16.783 19.177a2.723 2.723 0 0 0-.844 1.63l-.448 3.318c-.059.443-.682.487-.804.058l-1.722-6.051c-.197-.69.09-1.427.701-1.804z"></path>
      </symbol>
      <symbol id="icon-twiter-icon" viewBox="0 0 41 32">
        <path fill="var(--color1, #fff)" d="M38.89 3.865a16.49 16.49 0 0 1-4.558 1.249 7.869 7.869 0 0 0 3.48-4.372 15.815 15.815 0 0 1-5.016 1.915A7.926 7.926 0 0 0 27.018.154c-4.379 0-7.905 3.555-7.905 7.912 0 .627.053 1.23.183 1.804C12.72 9.549 6.901 6.397 2.992 1.596a7.967 7.967 0 0 0-1.083 3.998 7.923 7.923 0 0 0 3.514 6.574 7.812 7.812 0 0 1-3.574-.974v.087c0 3.844 2.742 7.037 6.337 7.772a7.9 7.9 0 0 1-2.074.26c-.506 0-1.018-.029-1.498-.135 1.025 3.133 3.933 5.436 7.391 5.51a15.894 15.894 0 0 1-9.807 3.374c-.649 0-1.271-.029-1.893-.108 3.504 2.26 7.656 3.55 12.135 3.55 14.556 0 22.513-12.058 22.513-22.509 0-.35-.012-.687-.029-1.022 1.57-1.114 2.889-2.506 3.965-4.107z"></path>
      </symbol>
      <symbol id="icon-icon-cross" viewBox="0 0 32 32"> <path d="M23.733 10.304l-1.504-1.504-5.963 5.963-5.963-5.963-1.504 1.504 5.963 5.963-5.963 5.963 1.504 1.504 5.963-5.963 5.963 5.963 1.504-1.504-5.963-5.963 5.963-5.963z"></path></symbol>
    </defs>
  </symbol>
</svg>