<svg width="14" height="11" viewBox="0 0 14 11" fill="none" xmlns="http://www.w3.org/2000/svg">
<path d="M13.3684 1.32848C12.8752 1.54484 12.3496 1.68825 11.8017 1.75788C12.3654 1.42133 12.7956 0.892458 12.9978 0.254997C12.4723 0.56834 11.892 0.789669 11.2736 0.913182C10.7746 0.381827 10.0634 0.0527344 9.28747 0.0527344C7.78211 0.0527344 6.57018 1.2746 6.57018 2.77251C6.57018 2.98804 6.58842 3.19527 6.63318 3.39256C4.37265 3.28231 2.3724 2.19888 1.02867 0.548445C0.79408 0.955458 0.656475 1.42133 0.656475 1.92284C0.656475 2.86452 1.14141 3.69927 1.86425 4.18255C1.4274 4.17426 0.99883 4.04743 0.635751 3.84766C0.635751 3.85594 0.635751 3.86672 0.635751 3.8775C0.635751 5.19884 1.57826 6.29637 2.81422 6.54919C2.5929 6.60971 2.35167 6.63872 2.10133 6.63872C1.92725 6.63872 1.75151 6.62877 1.58655 6.5923C1.93886 7.6691 2.93857 8.46075 4.12728 8.48644C3.20217 9.21012 2.02755 9.64614 0.755948 9.64614C0.532961 9.64614 0.319093 9.6362 0.105225 9.60884C1.30969 10.3856 2.73713 10.8291 4.27649 10.8291C9.28001 10.8291 12.0155 6.68431 12.0155 3.09166C12.0155 2.97146 12.0114 2.85541 12.0056 2.74018C12.5452 2.35721 12.9987 1.87891 13.3684 1.32848Z" fill="white"/>
</svg>
