<!-- Generated by IcoMoon.io -->
<svg version="1.1" xmlns="http://www.w3.org/2000/svg" width="41" height="32" viewBox="0 0 41 32">
<title>foto-icon</title>
<path fill="#fff" d="M38.247 4.531h-4.912l-2.051-3.72c-0.286-0.477-0.811-0.811-1.335-0.811h-8.775c-0.572 0-1.097 0.334-1.335 0.811l-2.003 3.72h-7.63c-0.095 0-0.191-0.095-0.191-0.191v-0.715c0-0.572-0.477-1.002-1.001-1.002h-1.812c-0.572 0-1.001 0.477-1.001 1.002v0.715c0 0.095-0.095 0.191-0.191 0.191h-3.577c-1.335 0-2.432 1.097-2.432 2.432v22.319c0 1.335 1.097 2.432 2.432 2.432h35.863c1.335 0 2.432-1.097 2.432-2.432v-22.319c-0.048-1.335-1.144-2.432-2.48-2.432zM25.562 26.659c-4.721 0-8.584-3.863-8.584-8.584s3.863-8.584 8.584-8.584c4.721 0 8.584 3.863 8.584 8.584s-3.863 8.584-8.584 8.584z"></path>
<path fill="#fff" d="M25.562 23.511c3.003 0 5.437-2.434 5.437-5.437s-2.434-5.437-5.437-5.437c-3.003 0-5.437 2.434-5.437 5.437s2.434 5.437 5.437 5.437z"></path>
</svg>
