<!-- Generated by IcoMoon.io -->
<svg version="1.1" xmlns="http://www.w3.org/2000/svg" width="29" height="32" viewBox="0 0 29 32">
<title>heart-icon</title>
<path fill="none" stroke="#fff" stroke-linejoin="miter" stroke-linecap="butt" stroke-miterlimit="4" stroke-width="2.6667" d="M13.552 26.381l-0.029-0.029-0.031-0.027c-3.836-3.365-6.901-6.091-9.019-8.647-2.104-2.538-3.14-4.752-3.14-7.075 0-3.762 2.912-6.666 6.733-6.666 2.099 0 4.223 0.989 5.586 2.586l1.015 1.19 1.014-1.191c1.359-1.596 3.485-2.585 5.585-2.585 3.821 0 6.733 2.904 6.733 6.666 0 2.323-1.036 4.537-3.14 7.075-2.119 2.556-5.183 5.283-9.019 8.647l-0.031 0.027-1.143 1.134-1.114-1.105z"></path>
</svg>
