<!-- Generated by IcoMoon.io -->
<svg version="1.1" xmlns="http://www.w3.org/2000/svg" width="41" height="32" viewBox="0 0 41 32">
<title>line-icon</title>
<path fill="#fff" d="M26.789 8.685c2.54 2.54 3.482 6.144 2.826 9.421l-2.007-2.007-2.908 2.908 7.086 7.086 7.086-7.086-2.908-2.908-2.253 2.253c0.778-4.465-0.573-9.175-4.014-12.575-4.875-4.874-12.329-5.53-17.941-2.048l3.031 3.031c3.891-2.007 8.766-1.352 12.002 1.925z"></path>
<path fill="#fff" d="M27.158 28.306l-3.031-3.031c-3.891 1.966-8.766 1.311-12.043-1.925-2.54-2.54-3.482-6.144-2.826-9.421l2.007 2.007 2.908-2.908-7.086-7.086-7.086 7.086 2.908 2.908 2.253-2.253c-0.737 4.465 0.614 9.175 4.055 12.575 4.874 4.874 12.33 5.571 17.941 2.048z"></path>
</svg>
