<!-- Generated by IcoMoon.io -->
<svg version="1.1" xmlns="http://www.w3.org/2000/svg" width="22" height="32" viewBox="0 0 22 32">
<title>logo-icon</title>
<path fill="#fff" d="M17.485 7.217c-0.773-2.621-1.658-5.022-1.658-5.022s0.29 1.145-1.295 3.766c-2.206 3.64-2.072 3.307-14.531 20.967l3.208 4.462 13.797-20.446c0 0 1.258-1.109 0.48-3.727z"></path>
<path fill="#fff" d="M15.174 16.323l-3.080 4.52 5.594 10.911 3.138-4.61-5.653-10.821z"></path>
<path fill="#fff" d="M7.136 2.315l0.134-0.415c-0.071 0.121-0.115 0.263-0.134 0.415z"></path>
<path fill="#fff" d="M7.46 14.574l2.735-4.65-2.259-5.034c0 0-0.92-1.56-0.799-2.575l-1.677 5.25c0 0-0.551 1.384 0.262 2.898 0.808 1.514 1.738 4.111 1.738 4.111z"></path>
<path fill="#fff" d="M14.681 4.633c0 0 1.422-2.011 0.719-3.414 0 0-3.129-2.491-7.426-0.351 0 0-1.366 0.809 0.368 3.765 0 0 4.197-1.109 6.339 0z"></path>
</svg>
